<?xml version="1.0" encoding="iso-8859-1"?>
<!-- Generator: Adobe Illustrator 16.0.0, SVG Export Plug-In . SVG Version: 6.00 Build 0)  -->
<!DOCTYPE svg PUBLIC "-//W3C//DTD SVG 1.1//EN" "http://www.w3.org/Graphics/SVG/1.1/DTD/svg11.dtd">
<svg version="1.1" id="Capa_1" xmlns="http://www.w3.org/2000/svg" xmlns:xlink="http://www.w3.org/1999/xlink" x="0px" y="0px"
	 width="931.9px" height="931.9px" viewBox="0 0 931.9 931.9" style="enable-background:new 0 0 931.9 931.9;" xml:space="preserve"
	>
<g>
	<path d="M235.07,777h458V446.3c0-117.1-94.4-212.3-211.5-212.3h-35c-117.1,0-211.5,95.2-211.5,212.3V777z"/>
	<path d="M717.97,816h-24.9h-458h-24.9c-11,0-20.1,9.2-20.1,20.2V912c0,11,9,19.9,20.1,19.9h507.8c11,0,20.1-8.9,20.1-19.9v-75.8
		C738.07,825.2,729.07,816,717.97,816z"/>
	<path d="M69.97,236.3l116.7,79.8c3.5,2.4,7.4,3.5,11.3,3.5c6.4,0,12.7-3,16.5-8.7l21.2-31c6.2-9.1,3.9-21.6-5.2-27.8l-116.7-79.8
		c-3.5-2.4-7.4-3.5-11.3-3.5c-6.4,0-12.7,3-16.5,8.7l-21.2,31C58.47,217.6,60.77,230,69.97,236.3z"/>
	<path d="M716.37,313.7c3.9,5.8,10.2,8.9,16.7,8.9c3.8,0,7.7-1.1,11.1-3.4l117.601-78.5c9.2-6.1,11.7-18.6,5.5-27.7l-20.9-31.3
		c-3.899-5.8-10.2-8.9-16.7-8.9c-3.8,0-7.699,1.1-11.1,3.4l-117.5,78.5c-9.2,6.1-11.7,18.6-5.5,27.7L716.37,313.7z"/>
	<path d="M433.27,177c3.3,3,7.5,4,12,4h37.6c4.5,0,8.601-1,12-4c4.9-4,8.2-9.4,8.2-16V19.6c0-11-9.2-19.6-20.2-19.6h-37.6
		c-11,0-20.2,8.6-20.2,19.6l0,0V161l0,0C425.07,167.6,428.47,173,433.27,177z"/>
</g>
<g>
</g>
<g>
</g>
<g>
</g>
<g>
</g>
<g>
</g>
<g>
</g>
<g>
</g>
<g>
</g>
<g>
</g>
<g>
</g>
<g>
</g>
<g>
</g>
<g>
</g>
<g>
</g>
<g>
</g>
</svg>
