<?xml version="1.0" standalone="no"?><!DOCTYPE svg PUBLIC "-//W3C//DTD SVG 1.1//EN" "http://www.w3.org/Graphics/SVG/1.1/DTD/svg11.dtd"><svg t="1569207077243" class="icon" viewBox="0 0 1143 1024" version="1.1" xmlns="http://www.w3.org/2000/svg" p-id="1463" xmlns:xlink="http://www.w3.org/1999/xlink" width="223.2421875" height="200"><defs><style type="text/css"></style></defs><path d="M1127.573126 659.85367l-285.328155-163.342913V213.05165l19.475883 7.496078c3.489553 1.242718 7.237592 1.98835 10.737088 1.98835a29.825243 29.825243 0 0 0 27.956194-19.22734 30.173204 30.173204 0 0 0-17.229049-38.961709L462.311146 2.743922a28.990136 28.990136 0 0 0-21.474175 0L19.982913 164.337087a30.083728 30.083728 0 0 0-17.229049 38.971651 29.75565 29.75565 0 0 0 38.693282 17.229048l19.475883-7.496077v779.989747A29.894835 29.894835 0 0 0 90.867573 1023.005825h270.345942a29.894835 29.894835 0 0 0 29.954485-29.974369V842.662524H511.502913v150.358991a29.894835 29.894835 0 0 0 29.954485 29.974368H1112.342369a29.894835 29.894835 0 0 0 29.964427-29.974368V686.08a29.855068 29.855068 0 0 0-14.73367-26.22633zM541.696 782.485126H361.462058a29.894835 29.894835 0 0 0-29.954485 29.974369v150.349049H120.822058V190.06633L451.325515 63.189748l330.513398 126.876582V963.057087H571.650485V812.698097c0-16.731961-13.48101-30.222913-29.954485-30.222913z m540.940427 180.571961h-240.391456V565.943922l240.391456 137.623612V963.057087z" fill="#E6e6e6" p-id="1464"></path><path d="M420.873942 241.26633h60.157514v60.18734h-60.157514zM301.304544 241.26633h60.157514v60.18734h-60.157514zM541.696 241.26633h60.157515v60.18734h-60.157515zM420.873942 361.650951h60.157514v60.18734h-60.157514zM301.304544 361.650951h60.157514v60.18734h-60.157514zM541.696 361.650951h60.157515v60.18734h-60.157515zM420.873942 482.025631h60.157514v60.18734h-60.157514zM301.304544 482.025631h60.157514v60.18734h-60.157514zM541.696 482.025631h60.157515v60.18734h-60.157515zM420.873942 602.161709h60.157514v60.18734h-60.157514zM301.304544 602.161709h60.157514v60.18734h-60.157514zM541.696 602.161709h60.157515v60.18734h-60.157515zM932.366913 742.270757h60.157514v60.18734h-60.157514z" fill="#E6e6e6" p-id="1465"></path></svg>