<?xml version="1.0" encoding="iso-8859-1"?>
<!-- Generator: Adobe Illustrator 21.0.0, SVG Export Plug-In . SVG Version: 6.00 Build 0)  -->
<svg xmlns="http://www.w3.org/2000/svg" xmlns:xlink="http://www.w3.org/1999/xlink" version="1.1" id="Capa_1" x="0px" y="0px" viewBox="0 0 512 512" style="enable-background:new 0 0 512 512;" xml:space="preserve" width="512" height="512">
<g>
	<path d="M351.408,441.408C325.231,467.584,291.348,482,256,482s-69.231-14.416-95.408-40.592c-5.857-5.857-15.355-5.858-21.213,0   c-5.857,5.858-5.857,15.355,0,21.213C171.222,494.464,212.639,512,256,512s84.778-17.536,116.621-49.379   c5.858-5.857,5.858-15.355,0-21.213C366.763,435.551,357.266,435.55,351.408,441.408z"/>
	<path d="M181.783,399.004c-5.858,5.858-5.858,15.355,0,21.213C201.633,440.068,227.991,451,256,451s54.367-10.932,74.217-30.783   c5.858-5.858,5.858-15.355,0-21.213c-5.857-5.858-15.355-5.858-21.213,0C294.82,413.188,275.996,421,256,421   s-38.82-7.812-53.004-21.996C197.138,393.146,187.64,393.146,181.783,399.004z"/>
	<path d="M287.819,377.82c5.858-5.857,5.859-15.355,0.001-21.213c-5.857-5.858-15.354-5.859-21.213-0.001   C263.773,359.439,260.007,361,256,361s-7.773-1.561-10.607-4.394c-5.857-5.857-15.355-5.857-21.213,0.001   c-5.858,5.858-5.857,15.355,0.001,21.213c8.5,8.499,19.8,13.18,31.819,13.18S279.32,386.319,287.819,377.82z"/>
	<path d="M497,0H15C6.716,0,0,6.716,0,15v31c0,21.847,16.148,39.583,36.198,43.938L121,259.541V286c0,24.813,20.187,45,45,45h180   c24.813,0,45-20.187,45-45v-26.459l84.802-169.604C495.834,85.587,512,67.862,512,46V15C512,6.716,505.284,0,497,0z M411.729,151   c-12.775,0-298.609,0-311.459,0l-30-60h371.459L411.729,151z M366.729,241h-29.918l20-60h39.918L366.729,241z M271,241v-60h54.188   l-20,60H271z M206.812,241l-20-60H241v60H206.812z M145.271,241l-30-60h39.918l20,60H145.271z M361,286c0,8.271-6.729,15-15,15H166   c-8.271,0-15-6.729-15-15v-15c22.139,0,188.932,0,210,0V286z M482,46c0,7.991-7.477,15-16,15H46c-8.523,0-16-7.009-16-15V30h452V46   z"/>
</g>















</svg>
