<?xml version="1.0" standalone="no"?><!DOCTYPE svg PUBLIC "-//W3C//DTD SVG 1.1//EN" "http://www.w3.org/Graphics/SVG/1.1/DTD/svg11.dtd"><svg t="1569207485402" class="icon" viewBox="0 0 1038 1024" version="1.1" xmlns="http://www.w3.org/2000/svg" p-id="5610" xmlns:xlink="http://www.w3.org/1999/xlink" width="202.734375" height="200"><defs><style type="text/css"></style></defs><path d="M965.12 75.776H73.216C32.768 75.776 0 108.544 0 148.992V266.24c0 40.448 32.768 73.216 73.216 73.216h891.904c40.448 0 73.216-32.768 73.216-73.216V148.992c0-40.448-32.768-73.216-73.216-73.216z m16.896 190.464c0 9.216-7.68 16.896-16.896 16.896H73.216c-9.216 0-16.896-7.68-16.896-16.896V148.992c0-9.216 7.68-16.896 16.896-16.896h891.904c9.216 0 16.896 7.68 16.896 16.896V266.24z" p-id="5611" fill="#e6e6e6"></path><path d="M162.816 207.872m-38.4 0a38.4 38.4 0 1 0 76.8 0 38.4 38.4 0 1 0-76.8 0Z" p-id="5612" fill="#e6e6e6"></path><path d="M965.12 380.416H73.216C32.768 380.416 0 413.184 0 453.632v117.248c0 40.448 32.768 73.216 73.216 73.216h891.904c40.448 0 73.216-32.768 73.216-73.216V453.632c0-40.448-32.768-73.216-73.216-73.216z m16.896 189.952c0 9.216-7.68 16.896-16.896 16.896H73.216c-9.216 0-16.896-7.68-16.896-16.896V453.632c0-9.216 7.68-16.896 16.896-16.896h891.904c9.216 0 16.896 7.68 16.896 16.896v116.736z" p-id="5613" fill="#e6e6e6"></path><path d="M162.816 512m-38.4 0a38.4 38.4 0 1 0 76.8 0 38.4 38.4 0 1 0-76.8 0Z" p-id="5614" fill="#e6e6e6"></path><path d="M965.12 684.544H73.216c-40.448 0-73.216 32.768-73.216 73.216v117.248c0 40.448 32.768 73.216 73.216 73.216h891.904c40.448 0 73.216-32.768 73.216-73.216V757.76c0-40.448-32.768-73.216-73.216-73.216z m16.896 190.464c0 9.216-7.68 16.896-16.896 16.896H73.216c-9.216 0-16.896-7.68-16.896-16.896V757.76c0-9.216 7.68-16.896 16.896-16.896h891.904c9.216 0 16.896 7.68 16.896 16.896v117.248z" p-id="5615" fill="#e6e6e6"></path></svg>