<?xml version="1.0" encoding="iso-8859-1"?>
<!-- Generator: Adobe Illustrator 19.0.0, SVG Export Plug-In . SVG Version: 6.00 Build 0)  -->
<svg version="1.1" id="Capa_1" xmlns="http://www.w3.org/2000/svg" xmlns:xlink="http://www.w3.org/1999/xlink" x="0px" y="0px"
	 viewBox="0 0 520.607 520.607" style="enable-background:new 0 0 520.607 520.607;" xml:space="preserve">
<path d="M239.328,41.96c-129.8,0-235.024,105.216-235.024,235.016S109.528,512,239.328,512
	c129.744,0,234.928-105.128,235.016-234.848H239.328V41.96z"/>
<path style="fill:#F91E1E;" d="M447.552,68.92C405.016,26.344,346.224,0,281.28,0v235.192h235.016c0-0.056,0.008-0.112,0.008-0.168
	C516.304,170.168,490.032,111.448,447.552,68.92z"/>
<g>
	
		<rect x="53.49" y="371.97" transform="matrix(-0.7071 0.7071 -0.7071 -0.7071 610.427 499.0922)" style="fill:#FFFFFF;" width="296.717" height="8"/>
	
		<rect x="86.876" y="379.63" transform="matrix(-0.7071 0.7071 -0.7071 -0.7071 708.5498 473.7685)" style="fill:#FFFFFF;" width="338.557" height="8"/>
	
		<rect x="131.436" y="386.872" transform="matrix(-0.7071 0.7071 -0.7071 -0.7071 807.1456 447.4125)" style="fill:#FFFFFF;" width="358.949" height="8"/>
</g>
<g>
</g>
<g>
</g>
<g>
</g>
<g>
</g>
<g>
</g>
<g>
</g>
<g>
</g>
<g>
</g>
<g>
</g>
<g>
</g>
<g>
</g>
<g>
</g>
<g>
</g>
<g>
</g>
<g>
</g>
</svg>
