<?xml version="1.0" standalone="no"?><!DOCTYPE svg PUBLIC "-//W3C//DTD SVG 1.1//EN" "http://www.w3.org/Graphics/SVG/1.1/DTD/svg11.dtd"><svg t="1569208464939" class="icon" viewBox="0 0 1024 1024" version="1.1" xmlns="http://www.w3.org/2000/svg" p-id="32166" xmlns:xlink="http://www.w3.org/1999/xlink" width="200" height="200"><defs><style type="text/css"></style></defs><path d="M809.45271 161.874842H262.956243v93.366909h-68.286933c-12.859987 0-25.073976 9.119991-25.073976 21.974978V323.899684c0 12.851987 12.213988 24.710976 25.073976 24.710976h68.286933v46.681954h-68.286933c-12.859987 0-25.073976 9.114991-25.073976 21.972979v46.685954c0 12.852987 12.213988 24.702976 25.073976 24.702976h68.286933v46.684954h-68.286933c-12.859987 0-25.073976 9.115991-25.073976 21.973979v46.681954c0 12.858987 12.213988 24.708976 25.073976 24.708976h68.286933v46.684954h-68.286933c-12.859987 0-25.073976 9.117991-25.073976 21.972979v46.683954c0 12.857987 12.213988 24.709976 25.073976 24.709976h68.286933v93.368909h546.496467c25.763975 0 44.951956-22.341978 44.951956-48.053953V207.192798c0.009-25.805975-19.188981-45.317956-44.951956-45.317956zM403.009106 815.440204H309.640198v-46.687955h25.073975c12.812987 0 21.609979-11.851988 21.609979-24.702976v-46.689954c0-12.853987-8.753991-21.972979-21.609979-21.972979H309.640198v-46.682954h25.073975c12.812987 0 21.609979-11.851988 21.609979-24.710976v-46.677954c0-12.854987-8.753991-21.977979-21.609979-21.977979H309.640198v-46.682954h25.073975c12.812987 0 21.609979-11.852988 21.609979-24.704976v-46.683954c0-12.856987-8.753991-21.974979-21.609979-21.974979H309.640198v-46.681954h25.073975c12.812987 0 21.609979-11.858988 21.609979-24.710976v-46.683955c0-12.853987-8.753991-21.972979-21.609979-21.972978H309.640198v-46.679955h93.368908v606.880408z" fill="#e6e6e6" p-id="32167"></path></svg>