<svg height="436pt" viewBox="0 0 436.27783 436" width="436pt" xmlns="http://www.w3.org/2000/svg"><path d="m428.277344 218.261719c.0625 38.832031-10.691406 76.917969-31.050782 109.988281l-.460937-.28125-72.316406-72.320312-.25-.089844c8.726562-24.890625 8.449219-52.058594-.792969-76.769532l.300781-.109374 72.320313-72.320313c21.128906 33.496094 32.3125 72.300781 32.25 111.902344zm0 0" fill="#00acea"/><path d="m396.765625 327.96875.460937.28125c-17.316406 28.105469-40.972656 51.765625-69.078124 69.082031l-.28125-.460937-72.320313-72.320313-.089844-.25c32.132813-11.332031 57.40625-36.605469 68.742188-68.742187l.25.089844zm0 0" fill="#00efd1"/><path d="m396.027344 106.359375-72.320313 72.320313-.300781.109374c-11.988281-31.898437-37.78125-56.652343-70.148438-67.320312l.070313-.207031 72.800781-73.292969c28.332032 17.011719 52.277344 40.4375 69.898438 68.390625zm0 0" fill="#00efd1"/><path d="m327.867188 396.871094.28125.460937c-68.175782 41.824219-154.171876 41.359375-221.890626-1.203125l72.320313-72.320312.109375-.296875c24.707031 9.238281 51.875 9.519531 76.769531.789062l.089844.25zm0 0" fill="#00acea"/><path d="m326.128906 37.96875-72.800781 73.292969-.070313.207031c-23.519531-7.699219-48.917968-7.453125-72.28125.710938l-72.617187-73.109376c66.734375-40.839843 150.625-41.265624 217.769531-1.101562zm0 0" fill="#00acea"/><path d="m108.359375 39.070312 72.617187 73.109376c-32.132812 11.292968-57.429687 36.523437-68.808593 68.628906l-.550781-.1875-72.648438-72.160156c17.363281-28.253907 41.132812-52.027344 69.390625-69.390626zm0 0" fill="#00efd1"/><path d="m178.6875 323.511719-.109375.296875-72.320313 72.320312c-28.003906-17.652344-51.464843-41.644531-68.480468-70.039062l.570312-.339844 72.808594-72.320312.210938-.070313c10.667968 32.367187 35.421874 58.160156 67.320312 70.152344zm0 0" fill="#00efd1"/><path d="m111.617188 180.621094.550781.1875c-8.25 23.4375-8.53125 48.941406-.800781 72.550781l-.210938.070313-72.808594 72.320312-.570312.339844c-40.078125-67.128906-39.617188-150.945313 1.191406-217.628906zm0 0" fill="#00acea"/><path d="m101.992188 402.898438c70.296874 44.1875 159.578124 44.671874 230.351562 1.242187 29.152344-17.996094 53.703125-42.546875 71.699219-71.699219 52.78125-85.984375 39.71875-196.941406-31.582031-268.320312-71.304688-71.378906-182.25-84.558594-268.289063-31.867188-29.308594 18.046875-53.972656 42.714844-72.019531 72.019532-62.4375 101.871093-31.296875 235.011718 69.839844 298.625zm-53.96875-75.484376 60.289062-59.882812c11.554688 25.472656 31.527344 46.191406 56.554688 58.675781l-59.671876 59.671875c-22.808593-15.429687-42.253906-35.316406-57.171874-58.464844zm135.601562-207.683593h.007812c21.699219-7.578125 45.289063-7.808594 67.132813-.65625 30.015625 9.988281 53.945313 32.953125 65.15625 62.535156 8.578125 22.949219 8.835937 48.179687.730469 71.300781-10.609375 29.796875-34.058594 53.242188-63.855469 63.851563-23.121094 8.101562-48.351563 7.839843-71.300781-.738281-29.578125-11.214844-52.542969-35.144532-62.53125-65.164063-7.175782-21.929687-6.914063-45.613281.746094-67.382813 10.648437-29.769531 34.113281-53.175781 63.910156-63.746093zm-64.441406 274.789062 61.746094-61.746093c23.441406 7.589843 48.640624 7.835937 72.226562.699218l62.101562 62.101563c-61.175781 33.445312-135.261718 33.050781-196.074218-1.054688zm210.183594-7.460937-59.902344-59.898438c25.234375-12.019531 45.570312-32.351562 57.59375-57.585937l59.898437 59.894531c-15.136719 22.867188-34.722656 42.453125-57.589843 57.589844zm90.910156-168.796875c.027344 33.9375-8.507813 67.332031-24.808594 97.097656l-62.097656-62.097656c7.132812-23.585938 6.890625-48.785157-.703125-72.226563l61.75-61.746094c16.984375 30.21875 25.890625 64.304688 25.859375 98.972657zm-34.5-112.960938-59.671875 59.671875c-12.484375-25.03125-33.203125-45-58.675781-56.558594l59.886718-60.285156c23.144532 14.914063 43.03125 34.363282 58.460938 57.171875zm-72.707032-65.53125-62.203124 62.613281c-22.164063-6.234374-45.648438-6.003906-67.691407.660157l-61.835937-62.253907c59.6875-32.5 131.699218-32.882812 191.726562-1.019531zm-205.847656 9.511719 59.664063 60.0625c-25.261719 12.023438-45.621094 32.375-57.648438 57.636719l-60.0625-59.65625c15.222657-23.074219 34.96875-42.824219 58.046875-58.042969zm-66.535156 72.164062 62.253906 61.832032c-6.667968 22.042968-6.894531 45.53125-.660156 67.699218l-62.617188 62.203126c-31.863281-60.035157-31.480468-132.046876 1.023438-191.734376zm0 0" fill="#083863"/></svg>