<?xml version="1.0" encoding="iso-8859-1"?>
<!-- Generator: Adobe Illustrator 19.0.0, SVG Export Plug-In . SVG Version: 6.00 Build 0)  -->
<svg version="1.1" id="Layer_1" xmlns="http://www.w3.org/2000/svg" xmlns:xlink="http://www.w3.org/1999/xlink" x="0px" y="0px"
	 viewBox="0 0 512 512" style="enable-background:new 0 0 512 512;" xml:space="preserve">
<g>
	<g>
		<path d="M160.585,351.416c-3.979-3.98-7.678-8.162-11.087-12.526l-85.935,85.935c3.663,4.165,7.461,8.239,11.419,12.196
			c3.957,3.957,8.031,7.755,12.196,11.419l85.932-85.934C168.746,359.094,164.563,355.394,160.585,351.416z"/>
	</g>
</g>
<g>
	<g>
		<path d="M87.178,63.564c-4.164,3.664-8.239,7.462-12.196,11.419c-3.958,3.957-7.755,8.031-11.419,12.196l85.932,85.933
			c3.412-4.366,7.111-8.549,11.089-12.526c3.979-3.98,8.162-7.678,12.525-11.087L87.178,63.564z"/>
	</g>
</g>
<g>
	<g>
		<path d="M362.504,338.892c-3.412,4.364-7.111,8.545-11.087,12.524c-3.979,3.978-8.162,7.678-12.526,11.087l85.934,85.935
			c4.163-3.663,8.239-7.462,12.196-11.419c3.957-3.957,7.753-8.031,11.417-12.196L362.504,338.892z"/>
	</g>
</g>
<g>
	<g>
		<path d="M467.815,112.129l-88.629,88.63c7.698,17.147,11.753,35.882,11.753,55.242s-4.055,38.095-11.753,55.242l88.63,88.63
			C496.54,357.773,512,308.078,512,256S496.539,154.227,467.815,112.129z"/>
	</g>
</g>
<g>
	<g>
		<path d="M437.019,74.982c-3.957-3.957-8.033-7.753-12.196-11.417l-85.933,85.932c4.366,3.411,8.548,7.109,12.526,11.088
			c3.978,3.978,7.678,8.162,11.087,12.524l85.932-85.933C444.772,83.013,440.976,78.939,437.019,74.982z"/>
	</g>
</g>
<g>
	<g>
		<path d="M311.242,379.186c-17.148,7.698-35.883,11.753-55.242,11.753s-38.094-4.055-55.241-11.753l-88.628,88.63
			C154.229,496.541,203.924,512,256.002,512c52.078,0,101.771-15.461,143.87-44.184L311.242,379.186z"/>
	</g>
</g>
<g>
	<g>
		<path d="M132.815,200.761l-88.63-88.63C15.461,154.229,0,203.922,0,256s15.461,101.773,44.186,143.872l88.629-88.631
			c-7.698-17.147-11.752-35.88-11.752-55.239S125.117,217.908,132.815,200.761z"/>
	</g>
</g>
<g>
	<g>
		<path d="M256.002,0C203.924,0,154.229,15.461,112.13,44.186l88.629,88.63c17.147-7.698,35.882-11.753,55.241-11.753
			s38.094,4.055,55.243,11.753l88.628-88.63C357.773,15.461,308.08,0,256.002,0z"/>
	</g>
</g>
<g>
</g>
<g>
</g>
<g>
</g>
<g>
</g>
<g>
</g>
<g>
</g>
<g>
</g>
<g>
</g>
<g>
</g>
<g>
</g>
<g>
</g>
<g>
</g>
<g>
</g>
<g>
</g>
<g>
</g>
</svg>
