<?xml version="1.0" encoding="iso-8859-1"?>
<!-- Generator: Adobe Illustrator 19.0.0, SVG Export Plug-In . SVG Version: 6.00 Build 0)  -->
<svg version="1.1" id="Layer_1" xmlns="http://www.w3.org/2000/svg" xmlns:xlink="http://www.w3.org/1999/xlink" x="0px" y="0px"
	 viewBox="0 0 511.999 511.999" style="enable-background:new 0 0 511.999 511.999;" xml:space="preserve">
<polygon style="fill:#C1C3D3;" points="134.102,488.196 11.943,440.424 11.943,71.573 134.102,119.345 "/>
<polygon style="fill:#7D828F;" points="255.915,440.424 133.757,488.196 133.757,119.345 255.915,71.573 "/>
<polygon style="fill:#C1C3D3;" points="378.073,392.652 255.913,440.424 255.913,71.573 378.073,23.8 "/>
<polygon style="fill:#7D828F;" points="500.057,440.424 377.898,392.652 377.898,23.8 500.057,71.573 "/>
<path d="M70.882,363.487c-3.141,0-6.222-1.278-8.444-3.499c-0.549-0.549-1.051-1.158-1.481-1.815c-0.43-0.645-0.8-1.338-1.099-2.066
	c-0.299-0.717-0.537-1.469-0.681-2.233c-0.155-0.764-0.239-1.553-0.239-2.329s0.084-1.565,0.239-2.329
	c0.143-0.764,0.382-1.517,0.681-2.233c0.299-0.728,0.669-1.421,1.099-2.066c0.43-0.657,0.932-1.266,1.481-1.815
	c2.771-2.771,6.903-4.049,10.773-3.26c0.764,0.143,1.517,0.382,2.233,0.681c0.729,0.299,1.421,0.669,2.066,1.099
	c0.657,0.43,1.266,0.932,1.815,1.481c2.221,2.221,3.499,5.303,3.499,8.444c0,0.776-0.072,1.565-0.227,2.329
	c-0.155,0.764-0.394,1.517-0.693,2.233c-0.299,0.729-0.669,1.421-1.099,2.066c-0.43,0.657-0.932,1.266-1.481,1.815
	c-0.549,0.549-1.158,1.051-1.815,1.481c-0.645,0.43-1.338,0.8-2.066,1.099c-0.717,0.299-1.469,0.537-2.233,0.681
	C72.447,363.402,71.658,363.487,70.882,363.487z"/>
<path style="fill:#D0482D;" d="M451.139,259.417c0-22.753-10.375-43.082-26.653-56.516c-1.808-1.493-3.69-2.9-5.638-4.216
	c-0.975-0.658-1.965-1.293-2.971-1.905c-2.516-1.529-5.133-2.911-7.837-4.134c-0.541-0.245-1.086-0.482-1.633-0.714
	c-8.763-3.706-18.396-5.755-28.508-5.755l0,0l0,0c-10.112,0-19.747,2.049-28.508,5.755c-0.548,0.232-1.092,0.469-1.633,0.714
	c-2.704,1.223-5.319,2.605-7.837,4.134c-1.007,0.611-1.997,1.247-2.971,1.905c-1.948,1.316-3.83,2.724-5.638,4.216
	c-16.277,13.434-26.653,33.763-26.653,56.516c0,62.173,72.965,121.507,73.235,121.725c0.001,0.001,0.006,0.005,0.006,0.005l0,0l0,0
	c0,0,0.005-0.005,0.006-0.005C378.174,380.924,451.139,321.59,451.139,259.417z"/>
<path d="M504.407,60.45L383.545,13.185c-1.723-0.889-3.625-1.336-5.536-1.326c-1.928-0.018-3.847,0.43-5.585,1.327L251.563,60.45
	c-0.005,0.002-0.01,0.005-0.016,0.007l-117.619,45.996L16.293,60.45c-3.677-1.438-7.825-0.967-11.083,1.259
	C1.949,63.934,0,67.627,0,71.573v368.851c0,4.917,3.013,9.331,7.593,11.123l120.459,47.108c1.517,0.826,3.17,1.303,4.863,1.422
	c0.093,0.01,0.185,0.013,0.278,0.02c0.189,0.01,0.375,0.042,0.563,0.042c0.057,0,0.115-0.007,0.172-0.008
	c0.057,0.001,0.115,0.008,0.172,0.008c0.189,0,0.375-0.033,0.563-0.042c0.093-0.007,0.186-0.012,0.278-0.02
	c1.692-0.119,3.346-0.596,4.863-1.422l120.459-47.107c0.005-0.002,0.01-0.005,0.016-0.007l117.705-46.031l117.722,46.037
	c1.406,0.549,2.881,0.821,4.348,0.821c2.37,0,4.722-0.705,6.735-2.079c3.259-2.225,5.21-5.917,5.21-9.864V71.573
	C512,66.656,508.987,62.242,504.407,60.45z M121.813,470.567l-97.927-38.297V89.067l35.053,13.708v212.939
	c0,6.596,5.347,11.943,11.943,11.943c6.596,0,11.943-5.347,11.943-11.943V112.116l38.988,15.247
	C121.813,127.362,121.813,470.567,121.813,470.567z M243.97,432.272l-36.936,14.445V246.445c0-6.596-5.347-11.943-11.943-11.943
	c-6.596,0-11.943,5.347-11.943,11.943v209.613l-37.102,14.51V127.364l97.925-38.295L243.97,432.272L243.97,432.272z
	 M377.898,365.225c-17.858-16.51-61.298-61.254-61.298-105.807c0-18.361,8.132-35.604,22.31-47.303
	c1.516-1.25,3.105-2.439,4.721-3.53c0.821-0.553,1.659-1.092,2.491-1.597c2.104-1.279,4.31-2.442,6.55-3.455
	c0.456-0.207,0.916-0.407,1.37-0.6c7.549-3.192,15.576-4.812,23.856-4.812s16.307,1.618,23.848,4.808
	c0.462,0.196,0.922,0.398,1.371,0.6c2.246,1.016,4.452,2.18,6.558,3.459c0.832,0.505,1.668,1.043,2.487,1.594
	c1.618,1.094,3.208,2.282,4.722,3.53c14.18,11.702,22.312,28.944,22.312,47.305C439.196,303.978,395.746,348.726,377.898,365.225z
	 M267.858,79.725l98.097-38.362v133.715c-7.289,1.021-14.394,2.969-21.226,5.858c-0.633,0.269-1.261,0.543-1.894,0.829
	c-3.123,1.413-6.19,3.031-9.117,4.809c-1.156,0.702-2.317,1.448-3.454,2.214c-2.248,1.518-4.452,3.167-6.556,4.901
	c-19.697,16.256-30.993,40.212-30.993,65.728c0,56.909,53.206,109.364,71.595,125.793l-96.451,37.72L267.858,79.725L267.858,79.725z
	 M488.114,422.93l-96.575-37.768c18.437-16.48,71.543-68.889,71.543-125.745c0-25.515-11.297-49.471-30.996-65.729
	c-2.101-1.733-4.306-3.382-6.554-4.9c-1.135-0.767-2.297-1.512-3.455-2.214c-2.926-1.778-5.994-3.397-9.123-4.812
	c-0.626-0.282-1.254-0.557-1.895-0.829c-6.772-2.864-13.816-4.805-21.044-5.833V41.363l98.101,38.364V422.93z"/>
<circle style="fill:#FEF487;" cx="377.903" cy="259.415" r="33.918"/>
<path d="M377.898,305.279c-25.288,0-45.861-20.573-45.861-45.861s20.573-45.861,45.861-45.861c25.287,0,45.86,20.573,45.86,45.861
	S403.185,305.279,377.898,305.279z M377.898,237.442c-12.117,0-21.975,9.858-21.975,21.975c0,12.117,9.858,21.975,21.975,21.975
	c12.117,0,21.974-9.858,21.974-21.975C399.872,247.3,390.016,237.442,377.898,237.442z"/>
<path d="M195.09,222.558c-0.776,0-1.565-0.084-2.329-0.239c-0.764-0.143-1.517-0.382-2.233-0.681
	c-0.729-0.299-1.421-0.669-2.066-1.099c-0.657-0.43-1.266-0.932-1.815-1.481s-1.051-1.158-1.481-1.815
	c-0.43-0.645-0.8-1.338-1.099-2.054c-0.299-0.729-0.537-1.481-0.681-2.245c-0.155-0.764-0.239-1.553-0.239-2.329
	c0-3.141,1.278-6.222,3.499-8.444c0.549-0.549,1.158-1.051,1.815-1.481c0.645-0.43,1.338-0.8,2.066-1.099
	c0.717-0.299,1.469-0.525,2.233-0.681c1.541-0.311,3.117-0.311,4.658,0c0.764,0.155,1.517,0.382,2.233,0.681
	c0.729,0.299,1.421,0.669,2.066,1.099c0.657,0.43,1.266,0.932,1.815,1.481c2.221,2.221,3.499,5.303,3.499,8.444
	c0,0.776-0.084,1.565-0.239,2.329c-0.143,0.764-0.382,1.517-0.681,2.245c-0.299,0.717-0.669,1.409-1.099,2.054
	c-0.43,0.657-0.932,1.266-1.481,1.815s-1.158,1.051-1.815,1.481c-0.645,0.43-1.338,0.8-2.066,1.099
	c-0.717,0.299-1.469,0.537-2.233,0.681C196.655,222.474,195.867,222.558,195.09,222.558z"/>
<g>
</g>
<g>
</g>
<g>
</g>
<g>
</g>
<g>
</g>
<g>
</g>
<g>
</g>
<g>
</g>
<g>
</g>
<g>
</g>
<g>
</g>
<g>
</g>
<g>
</g>
<g>
</g>
<g>
</g>
</svg>
