<?xml version="1.0" encoding="iso-8859-1"?>
<!-- Generator: Adobe Illustrator 19.0.0, SVG Export Plug-In . SVG Version: 6.00 Build 0)  -->
<svg version="1.1" id="Capa_1" xmlns="http://www.w3.org/2000/svg" xmlns:xlink="http://www.w3.org/1999/xlink" x="0px" y="0px"
	 viewBox="0 0 512 512" style="enable-background:new 0 0 512 512;" xml:space="preserve">
<path style="fill:#6B5445;" d="M389.005,216.174c-4.267,0-7.726-3.459-7.726-7.726c0-14.077-4.905-25.513-14.578-33.992
	c-3.209-2.813-3.53-7.694-0.717-10.902c2.813-3.21,7.693-3.53,10.903-0.717c9.053,7.936,19.845,22.29,19.845,45.613
	C396.73,212.715,393.272,216.174,389.005,216.174z"/>
<path style="fill:#FF6536;" d="M383.121,288.725h67.565c9.946-41.556-21.048-80.172-62.382-80.172
	c-12.177,0-24.592,3.391-34.289,9.284C378.434,232.667,389.69,261.268,383.121,288.725z"/>
<path style="fill:#F95428;" d="M394.798,288.725c-4.753-29.008,5.743-54.845,25.554-71.586
	c-21.437-12.39-47.612-10.681-66.337,0.697c24.42,14.831,35.675,43.432,29.107,70.888H394.798z"/>
<path style="fill:#93482B;" d="M438.704,455.33l45.704-136.586c-25.206,0-431.135,0-456.815,0L73.298,455.33
	c0.103,0.27,12.193,31.899,47.967,31.899h134.737h134.734C426.511,487.229,438.601,455.599,438.704,455.33z"/>
<path style="fill:#843A24;" d="M85.955,376.846c0-20.541,3.987-40.149,11.215-58.102H27.593L73.298,455.33
	c0.103,0.27,12.193,31.899,47.967,31.899h10.599C103.511,459.034,85.955,419.991,85.955,376.846z"/>
<path style="fill:#9AD14B;" d="M221.407,130.509c-8.795-14.198-29.929-13.062-37.035,2.134c-0.513,1.097-0.441,2.38,0.193,3.414
	c3.854,6.276,10.558,10.024,17.935,10.024c0.404,0,0.81-0.012,1.223-0.035c7.745-0.444,14.599-5.085,17.885-12.109
	C222.124,132.832,222.049,131.544,221.407,130.509z"/>
<g>
	<path style="fill:#6B5445;" d="M184.031,173.577c-4.267,0-7.726-3.459-7.726-7.726c0-14.073-4.905-25.509-14.579-33.99
		c-3.209-2.814-3.529-7.695-0.715-10.903c2.813-3.21,7.694-3.529,10.903-0.716c9.052,7.938,19.844,22.293,19.844,45.611
		C191.757,170.118,188.298,173.577,184.031,173.577z"/>
	<path style="fill:#6B5445;" d="M322.484,216.174c-4.267,0-7.726-3.459-7.726-7.726c0-14.079-4.904-25.515-14.577-33.991
		c-3.21-2.813-3.531-7.694-0.718-10.903c2.812-3.21,7.693-3.53,10.903-0.718c9.053,7.934,19.844,22.288,19.844,45.614
		C330.21,212.715,326.751,216.174,322.484,216.174z"/>
</g>
<path style="fill:#80AD1F;" d="M111.833,288.725c-1.138-11.547,0.238-22.371,3.588-32.175c-4.917-6.537-13.746-10.785-22.556-10.785
	c-14.882,0-26.946,12.064-26.946,26.945c0,5.545,1.679,11.728,4.551,16.014h41.364V288.725z"/>
<path style="fill:#78991D;" d="M105.993,248.906c-19.206-9.548-40.075,3.907-40.075,23.804c0,5.545,1.679,11.728,4.551,16.014
	h25.754C87.807,276.164,90.872,256.941,105.993,248.906z"/>
<path style="fill:#9AD14B;" d="M257.261,288.725c1.137-11.536-0.202-22.869-4.08-33.575c-4.765-12.943-10.946-20.68-19.639-29.211
	c-0.044-0.103-5.218-4.973-5.298-12.484v-3.389c0-24.417-19.796-44.214-44.211-44.214c-0.001,0-0.002,0-0.003,0
	c-24.416,0-44.211,19.799-44.211,44.214v3.389c-0.08,7.505-5.251,12.381-5.296,12.484c-0.08,0.113-27.725,22.159-23.72,62.786
	L257.261,288.725L257.261,288.725z"/>
<path style="fill:#93C43D;" d="M160.277,230.058c0.044-0.103,5.216-4.981,5.296-12.484v-3.389c0-22.313,16.537-40.761,38.02-43.774
	c-5.898-2.916-12.535-4.561-19.56-4.561c0,0,0,0-0.001,0h-0.002c-24.416,0-44.211,19.799-44.211,44.214v3.389
	c-0.079,7.368-5.401,12.729-5.296,12.484c-0.08,0.113-27.725,22.159-23.72,62.786h25.485
	C134.655,249.402,160.431,229.844,160.277,230.058z"/>
<path style="fill:#FF822E;" d="M384.168,288.725c9.945-41.551-21.048-80.172-62.382-80.172c-41.41,0-72.308,38.67-62.384,80.172
	H384.168z"/>
<path style="fill:#ED6C24;" d="M334.662,209.846c-4.161-0.847-8.467-1.293-12.877-1.293c-41.41,0-72.308,38.67-62.384,80.172h25.754
	C276.35,251.897,299.692,216.972,334.662,209.846z"/>
<path style="fill:#AA563C;" d="M461.886,356.905l19.362-27.758l3.161-10.403h-15.463l-16.48,24.657l-16.48-24.657h-32.748
	l-16.48,24.657l-16.48-24.657h-32.748l-16.48,24.657l-16.48-24.657h-32.746l-16.482,24.658l-16.481-24.658h-32.745l-16.481,24.658
	l-16.481-24.658h-32.746l-16.481,24.658l-16.481-24.658H74.697l-16.48,24.658l-16.481-24.658H27.593l4.395,14.065l16.809,24.099
	l-5.854,8.394l6.14,18.21l9.135-13.097l23.433,33.594l-17.296,24.798l6.139,18.209l20.578-29.501l23.433,33.595l-20.109,28.828
	c4.162,2.55,9.03,4.676,14.683,5.962l14.847-21.284l15.776,22.615h34.157l15.774-22.615l15.774,22.615h34.158l15.774-22.615
	l15.775,22.615h34.159l15.774-22.615l15.774,22.615h34.158l15.775-22.615l15.008,21.517c5.72-1.165,10.663-3.178,14.901-5.648
	l-20.489-29.374l23.433-33.595l21.467,30.777l6.139-18.21l-18.186-26.073l23.434-33.596l10.025,14.372l6.139-18.21L461.886,356.905z
	 M353.902,322.279l23.433,34.628l-23.433,33.595l-23.434-33.596L353.902,322.279z M288.195,322.281l23.432,34.625l-23.433,33.596
	l-23.433-33.594L288.195,322.281z M222.486,322.282l23.433,34.626l-23.433,33.594l-23.432-33.595L222.486,322.282z M156.78,322.281
	l23.433,34.626l-23.433,33.595l-23.433-33.595L156.78,322.281z M67.638,356.906l23.433-34.627l23.434,34.627l-23.434,33.595
	L67.638,356.906z M100.492,404.006l23.433-33.594l23.433,33.595l-23.433,33.595L100.492,404.006z M156.78,484.703l-23.433-33.595
	l23.433-33.595l23.433,33.595L156.78,484.703z M166.201,404.007l23.433-33.595l23.433,33.595l-23.433,33.595L166.201,404.007z
	 M222.487,484.703l-23.433-33.595l23.432-33.594l23.433,33.595L222.487,484.703z M231.907,404.007l23.433-33.595l23.432,33.595
	l-23.433,33.595L231.907,404.007z M288.195,484.704l-23.433-33.595l23.433-33.596l23.434,33.596L288.195,484.704z M297.614,404.007
	l23.433-33.596l23.434,33.596l-23.433,33.595L297.614,404.007z M353.902,484.703l-23.433-33.594l23.433-33.595l23.433,33.594
	L353.902,484.703z M386.756,437.603l-23.433-33.595l23.433-33.596l23.433,33.596L386.756,437.603z M419.611,390.502l-23.433-33.595
	l23.434-34.627l23.433,34.626L419.611,390.502z"/>
<g>
	<path style="fill:#9E4C36;" d="M118.612,472.233c-3.365-4.333-6.506-8.847-9.406-13.527l-14.809,21.23
		c0.583,0.357,1.183,0.703,1.794,1.043c0.249,0.139,0.506,0.273,0.76,0.407c0.412,0.22,0.831,0.435,1.256,0.646
		c0.278,0.138,0.558,0.276,0.841,0.409c0.48,0.226,0.971,0.445,1.466,0.658c0.227,0.099,0.449,0.202,0.68,0.298
		c0.674,0.279,1.365,0.541,2.067,0.795c0.303,0.11,0.613,0.211,0.921,0.316c0.469,0.159,0.944,0.312,1.426,0.459
		c0.331,0.101,0.664,0.201,1.002,0.297c0.546,0.153,1.102,0.296,1.664,0.434c0.268,0.065,0.529,0.138,0.801,0.2h0.001
		L118.612,472.233z"/>
	<path style="fill:#9E4C36;" d="M48.797,356.906l-5.7,8.171l6.108,18.255l9.012-12.92l23.433,33.594L64.4,428.739l6.107,18.253
		l20.564-29.48l0.429,0.616c-3.056-11.135-4.904-22.767-5.399-34.752l-18.464-26.471L91.07,322.28l3.102,4.584
		c0.929-2.741,1.923-5.451,2.998-8.12H74.697l-16.48,24.658l-16.481-24.658H27.593l4.993,14.923L48.797,356.906z"/>
</g>
<path style="fill:#F2D59F;" d="M49.557,287.694v-23.673c0-114.237,92.937-207.173,207.171-207.173S463.9,149.784,463.9,264.021
	v23.673c18.819,0,13.208,0,32.08,0v-23.673c0-131.924-107.327-239.253-239.251-239.253c-131.923,0-239.25,107.329-239.25,239.253
	v23.673H49.557z"/>
<path style="fill:#EDBF77;" d="M256.728,41.809c-123.372,0-223.742,100.372-223.742,223.745v22.139h16.572V264.02
	c0-114.237,92.937-207.173,207.171-207.173S463.9,149.783,463.9,264.02v23.673c9.594,0,6.881,0,16.573,0v-22.139
	C480.472,142.182,380.101,41.809,256.728,41.809z"/>
<path style="fill:#F6B138;" d="M495.957,319.774H16.044c-8.859,0-16.04-7.181-16.04-16.04c0-8.861,7.181-16.04,16.04-16.04h479.912
	c8.859,0,16.04,7.179,16.04,16.04C511.997,312.593,504.816,319.774,495.957,319.774z"/>
<path style="fill:#F2902F;" d="M495.957,303.734H16.044c-5.934,0-11.103-3.231-13.877-8.021
	c-6.133,10.583,1.458,24.061,13.877,24.061h479.912c12.424,0,20.007-13.483,13.877-24.061
	C507.06,300.504,501.891,303.734,495.957,303.734z"/>
<g>
</g>
<g>
</g>
<g>
</g>
<g>
</g>
<g>
</g>
<g>
</g>
<g>
</g>
<g>
</g>
<g>
</g>
<g>
</g>
<g>
</g>
<g>
</g>
<g>
</g>
<g>
</g>
<g>
</g>
</svg>
