<svg height="512pt" viewBox="0 0 512 512" width="512pt" xmlns="http://www.w3.org/2000/svg" xmlns:xlink="http://www.w3.org/1999/xlink"><linearGradient id="a" gradientUnits="userSpaceOnUse" x1="0" x2="512" y1="256" y2="256"><stop offset="0" stop-color="#00f1ff"/><stop offset=".231" stop-color="#00d8ff"/><stop offset=".5138" stop-color="#00c0ff"/><stop offset=".7773" stop-color="#00b2ff"/><stop offset="1" stop-color="#00adff"/></linearGradient><path d="m512 256c0 141.386719-114.613281 256-256 256s-256-114.613281-256-256 114.613281-256 256-256 256 114.613281 256 256zm0 0" fill="url(#a)"/><g fill="#fff"><path d="m407.167969 353.183594c8.285156 0 15-6.714844 15-15v-14.613282c0-33.789062-27.488281-61.273437-61.277344-61.273437h-134.289063c-17.199218 0-32.066406 10.152344-38.933593 24.78125l-52.9375-48.375c-8.171875-7.914063-18.960938-12.230469-30.308594-12.101563-11.484375.109376-22.238281 4.683594-30.28125 12.878907-8.046875 8.195312-12.417969 19.035156-12.308594 30.519531s4.683594 22.238281 12.878907 30.28125c.105468.101562.207031.203125.316406.300781l71.277344 65.996094c37.757812 36.492187 87.460937 56.59375 139.980468 56.59375h120.882813c8.285156 0 15-6.71875 15-15 0-8.285156-6.714844-15-15-15h-120.882813c-44.742187 0-87.089844-17.144531-119.234375-48.265625-.082031-.078125-.160156-.15625-.242187-.230469l-71.210938-65.929687c-2.398437-2.417969-3.734375-5.617188-3.765625-9.027344-.03125-3.472656 1.289063-6.746094 3.71875-9.226562 2.433594-2.476563 5.683594-3.859376 9.152344-3.890626h.125c3.425781 0 6.652344 1.316407 9.101563 3.71875.125.125.253906.246094.386718.367188l80.773438 73.804688c7.855468 8.476562 19.074218 13.792968 31.515625 13.792968h69.984375c8.285156 0 15-6.71875 15-15 0-8.285156-6.714844-15-15-15h-69.984375c-2.65625 0-5.128907-.804687-7.1875-2.179687-.066407-.0625-.125-.132813-.191407-.195313l-2.777343-2.535156c-1.773438-2.222656-2.839844-5.027344-2.839844-8.085938 0-7.164062 5.828125-12.992187 12.996094-12.992187h134.285156c17.246094 0 31.277344 14.027344 31.277344 31.273437v14.613282c0 8.285156 6.71875 15 15 15zm0 0"/><path d="m182.527344 135.074219 14.507812 9.773437c-.050781.992188-.074218 1.980469-.074218 2.96875 0 .925782.027343 1.847656.070312 2.773438.015625.324218.039062.648437.058594.972656.019531.335938.03125.675781.058594 1.011719l-14.15625 11.433593c-5.699219 4.597657-7.242188 12.640626-3.652344 19.023438l6.671875 11.859375c3.589843 6.386719 11.265625 9.246094 18.152343 6.761719l16.53125-5.949219c2.34375 1.785156 4.824219 3.375 7.398438 4.792969.160156.089844.320312.183594.480469.269531.640625.347656 1.289062.675781 1.941406.996094.308594.152343.621094.304687.933594.457031.296875.140625.589843.296875.890625.433594l3.203125 17.808594c1.285156 7.144531 7.503906 12.34375 14.765625 12.34375h13.53125c7.371094 0 13.648437-5.351563 14.8125-12.632813l2.773437-17.34375c5.039063-2.230469 9.738281-5.144531 13.988281-8.683594l17.105469 5.066407c7.105469 2.105468 14.671875-1.289063 17.828125-7.984376l5.707032-12.105468c3.058593-6.488282 1.089843-14.238282-4.695313-18.488282l-14.222656-10.4375c.03125-.792968.046875-1.585937.046875-2.378906 0-.917968-.027344-1.835937-.070313-2.753906-.011719-.300781-.03125-.601562-.050781-.902344-.019531-.316406-.03125-.628906-.054688-.945312l14.683594-11.414063c6.074219-4.726562 7.589844-13.277343 3.511719-19.796875l-7.835937-12.523437c-3.800782-6.078125-11.375-8.613281-18.070313-6.054688l-16.246094 6.210938c-1.527343-1.144531-3.113281-2.199219-4.734375-3.191407-.039062-.023437-.078125-.050781-.121094-.074218-.679687-.414063-1.371093-.804688-2.070312-1.191406-.210938-.117188-.421875-.238282-.632812-.351563-.617188-.332031-1.242188-.648437-1.871094-.960937-.3125-.15625-.625-.308594-.941406-.460938-.292969-.136719-.578126-.289062-.871094-.421875l-3.203125-17.808594c-1.285157-7.148437-7.503907-12.347656-14.765625-12.347656h-14.285156c-7.480469 0-13.820313 5.515625-14.855469 12.921875l-2.410157 17.25c-.34375.15625-.675781.335938-1.019531.496094-.203125.101562-.40625.203125-.613281.304687-3.871094 1.894531-7.542969 4.179688-10.929688 6.875l-17.554687-5.199219c-6.769531-2.003906-14.019531.980469-17.414063 7.171876l-7 12.777343c-3.726562 6.800781-1.660156 15.316407 4.769532 19.648438zm44.484375 11.074219c.644531-12.046876 8.773437-22.785157 20.132812-26.792969 12.261719-4.324219 26.234375.027343 34.011719 10.394531 7.378906 9.839844 7.984375 23.578125 1.460938 34.011719-6.972657 11.144531-20.738282 16.609375-33.453126 13.144531-11.933593-3.253906-20.925781-13.921875-22.058593-26.246094-.140625-1.5-.179688-3.007812-.09375-4.511718zm0 0"/></g></svg>