<?xml version="1.0"?>
<svg xmlns="http://www.w3.org/2000/svg" xmlns:xlink="http://www.w3.org/1999/xlink" version="1.1" id="Capa_1" x="0px" y="0px" viewBox="0 0 512 512" style="enable-background:new 0 0 512 512;" xml:space="preserve" width="512px" height="512px"><g><g>
	<g>
		<path d="M382.931,30.833v60.809H129.069V30.833H53.995V512h404.01V30.833H382.931z M155.888,468.005l-42.453-42.453l21.214-21.214    l21.239,21.24l41.256-41.256l21.214,21.214L155.888,468.005z M155.888,347.906l-42.453-42.453l21.214-21.214l21.239,21.24    l41.256-41.256l21.214,21.214L155.888,347.906z M155.888,227.806l-42.453-42.452l21.214-21.214l21.239,21.238l41.256-41.256    l21.214,21.214L155.888,227.806z M397.967,465.886H247.783v-30.001h150.185V465.886z M397.967,405.836H247.783v-30.001h150.185    V405.836z M397.967,345.786H247.783v-30.001h150.185V345.786z M397.967,285.737H247.783v-30.001h150.185V285.737z     M397.967,225.687H247.783v-30.001h150.185V225.687z M397.967,165.638H247.783v-30.001h150.185V165.638z" data-original="#000000" class="active-path" data-old_color="#000000" fill="#FFFBFB"/>
	</g>
</g><g>
	<g>
		<rect x="159.074" width="193.865" height="61.641" data-original="#000000" class="active-path" data-old_color="#000000" fill="#FFFBFB"/>
	</g>
</g></g> </svg>
