<?xml version="1.0" standalone="no"?><!DOCTYPE svg PUBLIC "-//W3C//DTD SVG 1.1//EN" "http://www.w3.org/Graphics/SVG/1.1/DTD/svg11.dtd"><svg t="1569207370751" class="icon" viewBox="0 0 1024 1024" version="1.1" xmlns="http://www.w3.org/2000/svg" p-id="3561" xmlns:xlink="http://www.w3.org/1999/xlink" width="200" height="200"><defs><style type="text/css"></style></defs><path d="M512 0C230.4 0 0 230.4 0 512s230.4 512 512 512 512-230.4 512-512S793.6 0 512 0z m0 905.846154C295.384615 905.846154 118.153846 728.615385 118.153846 512S295.384615 118.153846 512 118.153846s393.846154 177.230769 393.846154 393.846154-177.230769 393.846154-393.846154 393.846154z" p-id="3562" fill="#e6e6e6"></path><path d="M512 512m-157.538462 0a157.538462 157.538462 0 1 0 315.076924 0 157.538462 157.538462 0 1 0-315.076924 0Z" p-id="3563" fill="#e6e6e6"></path></svg>