<?xml version="1.0" encoding="iso-8859-1"?>
<!-- Generator: Adobe Illustrator 16.0.0, SVG Export Plug-In . SVG Version: 6.00 Build 0)  -->
<!DOCTYPE svg PUBLIC "-//W3C//DTD SVG 1.1//EN" "http://www.w3.org/Graphics/SVG/1.1/DTD/svg11.dtd">
<svg version="1.1" id="Capa_1" xmlns="http://www.w3.org/2000/svg" xmlns:xlink="http://www.w3.org/1999/xlink" x="0px" y="0px"
	 width="938.921px" height="938.921px" viewBox="0 0 938.921 938.921" style="enable-background:new 0 0 938.921 938.921;"
	 xml:space="preserve">
<g>
	<g>
		<path d="M398.7,702.66c0-18.3,1.7-36.5,5.1-54.3H388c-11,0-20-9-20-20v-78c0-11,9-20,20-20h67.6c21.7-29.3,48.9-54.4,80-73.7
			c8.2-5.1,17.601-7.8,27.101-7.8c3.8,0,7.6,0.4,11.3,1.3V44.26c0-11-8.5-19.9-19.5-19.9h-534C9.4,24.36,0,33.26,0,44.26v836
			c0,11,9.4,20.1,20.5,20.1H211v-104.7c0-11,9.4-20.3,20.5-20.3h112c11,0,19.5,9.3,19.5,20.3v104.7h113.8
			c-16.3-17.4-30.399-36.8-42-57.7C411.2,800.061,398.7,751.66,398.7,702.66z M368,137.36c0-11,9-20,20-20h73c11,0,20,9,20,20v78
			c0,11-9,20-20,20h-73c-11,0-20-9-20-20V137.36z M368,342.36c0-11,9-20,20-20h73c11,0,20,9,20,20v78c0,11-9,20-20,20h-73
			c-11,0-20-9-20-20V342.36z M206,628.36c0,11-9,20-20,20h-72c-11,0-20-9-20-20v-78c0-11,9-20,20-20h72c11,0,20,9,20,20V628.36z
			 M206,420.36c0,11-9,20-20,20h-72c-11,0-20-9-20-20v-78c0-11,9-20,20-20h72c11,0,20,9,20,20V420.36z M206,215.36c0,11-9,20-20,20
			h-72c-11,0-20-9-20-20v-78c0-11,9-20,20-20h72c11,0,20,9,20,20V215.36z"/>
		<path d="M877.3,510.46c-57.5-85.699-157.7-216.899-169.8-293.7c-1.4-8.9-9-14.1-16.7-14.1c-4.6,0-9.2,1.8-12.7,5.9
			c-0.199,0.2-17.199,19-27.899,39.8c-9.101,17.8-16.5,36.4-20.8,55.9c-8,36.7-6.601,75.9,2.6,112.3c3,11.899,6.9,23.5,11.6,34.8
			c4.5,10.8,9.4,21.8,10.2,33.7c1.3,22.1-18.7,41.3-40.399,41.3c-18,0-33.2-10.1-38.7-29c-1.5-5.1-6.601-9.2-12.101-9.2
			c-2.199,0-4.5,0.601-6.6,1.9c-29.8,18.5-55.4,43.1-75.1,72.1c-17.601,25.8-30.4,55-37.4,86.5c-3.9,17.5-5.9,35.601-5.9,54.3
			c0,72.301,30.601,137.4,79.601,183.101c10.6,9.899,22,18.899,34.2,26.8c1.8,1.2,3.6,1.7,5.399,1.7c6.8,0,12.601-7.4,8.9-14.601
			c-9.5-18.6-14.8-39.699-14.8-62c0-51.8,28.699-93.3,70.899-120.8c37.4-24.399,27.101-55.899,33.3-93.399
			c3.4-20.7,15.7-39.7,26.7-53.101c2-2.5,4.8-3.6,7.601-3.6c4.5,0,8.899,3,9.899,8.1c8.9,42.5,61.7,111.8,92.4,157.5
			c37.7,56.2,33.7,105.3,33.7,105.3c0,22.301-5.301,43.301-14.7,61.9c-3.601,7.2,2.1,14.6,8.899,14.6c1.801,0,3.7-0.5,5.4-1.699
			c68.4-44.7,113.6-122,113.6-209.801C938.8,702.66,946.2,612.96,877.3,510.46z"/>
	</g>
</g>
<g>
</g>
<g>
</g>
<g>
</g>
<g>
</g>
<g>
</g>
<g>
</g>
<g>
</g>
<g>
</g>
<g>
</g>
<g>
</g>
<g>
</g>
<g>
</g>
<g>
</g>
<g>
</g>
<g>
</g>
</svg>
