<?xml version="1.0" encoding="iso-8859-1"?>
<!-- Generator: Adobe Illustrator 19.0.0, SVG Export Plug-In . SVG Version: 6.00 Build 0)  -->
<svg version="1.1" id="Capa_1" xmlns="http://www.w3.org/2000/svg" xmlns:xlink="http://www.w3.org/1999/xlink" x="0px" y="0px"
	 viewBox="0 0 512 512" style="enable-background:new 0 0 512 512;" xml:space="preserve">
<polygon style="fill:#FFB84D;" points="256.645,77.508 256.645,434.487 0,434.487 0,187.292 109.784,77.508 "/>
<rect x="256.645" y="77.513" style="fill:#FF9A00;" width="255.355" height="356.979"/>
<polygon style="fill:#00A6FF;" points="456.293,132.065 456.293,380.33 56.987,380.33 56.987,181.892 86.985,181.892 
	86.985,182.212 104.484,161.013 104.484,132.065 "/>
<rect x="256.645" y="132.06" style="fill:#006EF5;" width="199.648" height="248.265"/>
<polygon style="fill:#78777F;" points="109.784,77.508 0,187.292 0,187.294 109.784,187.294 "/>
<polygon style="fill:#B6FFFF;" points="456.293,327.993 456.293,380.33 56.987,380.33 56.987,306.965 183.609,226.849 
	256.645,272.137 297.053,297.185 354.609,255.748 "/>
<circle style="fill:#FF4F19;" cx="295.993" cy="203.076" r="28.714"/>
<polygon style="fill:#00E8F2;" points="456.293,327.993 456.293,380.33 256.645,380.33 256.645,272.137 297.053,297.185 
	354.609,255.748 "/>
<g>
</g>
<g>
</g>
<g>
</g>
<g>
</g>
<g>
</g>
<g>
</g>
<g>
</g>
<g>
</g>
<g>
</g>
<g>
</g>
<g>
</g>
<g>
</g>
<g>
</g>
<g>
</g>
<g>
</g>
</svg>
