<?xml version="1.0" standalone="no"?><!DOCTYPE svg PUBLIC "-//W3C//DTD SVG 1.1//EN" "http://www.w3.org/Graphics/SVG/1.1/DTD/svg11.dtd"><svg t="1569208349070" class="icon" viewBox="0 0 1024 1024" version="1.1" xmlns="http://www.w3.org/2000/svg" p-id="30406" xmlns:xlink="http://www.w3.org/1999/xlink" width="200" height="200"><defs><style type="text/css"></style></defs><path d="M675.992627 361.238047c-3.869859 0-7.915827 1.803978-10.650016 4.540425l-163.821034 163.821034c-7.331058 7.333316-13.790607 9.950099-19.349297 9.950099-5.499987 0-11.492173-2.388746-19.116744-9.950099l-74.315297-74.20015c-13.50161-14.140565-34.975491 7.653922-21.008775 21.09683l74.256594 74.16854c11.69989 11.69989 25.431794 18.798395 40.240667 18.678732 14.754685-0.054187 29.012656-7.331058 40.36033-18.622287l163.877479-163.877479c9.223089-9.078591 3.199294-25.634996-10.446814-25.634996l-0.027093 0.029351zM503.795176 64.76257c-3.957913 1.718181-9.83721 5.441284-16.761865 9.690453-6.956264 4.246911-20.482709 12.803951-33.695321 20.019861-26.420708 14.316673-59.594479 28.457239-90.203395 28.457239-32.76511 0-57.291529-6.865952-80.077189-14.199268-22.783402-7.389761-44.02473-15.655545-68.903364-15.655545-23.047564 0-45.449398 3.637307-62.793774 17.981073-17.342118 14.346025-26.594558 39.107254-26.594558 71.405001V420.830269c0 35.149341-5.646743 156.952824 61.511346 275.552498 39.513657 69.777131 107.836769 133.93687 172.141006 181.51311 32.180341 23.803925 63.28823 43.354165 89.67733 57.149288 26.364263 13.790607 46.208017 22.112837 64.017498 22.112836 17.863668 0 37.653235-8.32223 64.01524-22.112836 26.389099-13.792865 57.496988-33.345363 89.679587-57.149288 64.304238-47.573982 132.568647-111.733721 172.141006-181.51311 67.15809-118.599674 61.511346-240.403157 61.511347-275.552498V182.461384c0-32.297747-9.254699-57.058976-26.596816-71.405001-17.278899-14.314415-39.74621-17.981073-62.791516-17.981073-24.849283 0-46.117705 8.263527-68.903365 15.596842-22.756308 7.333316-47.314336 14.199268-80.077188 14.199268-30.667619 0-64.01524-14.142823-90.435948-28.457238-13.210354-7.157208-26.506504-15.246885-33.66597-20.019862-7.243004-4.770719-13.181003-7.739719-16.730256-9.690453-4.190466-1.892032-12.164995-1.892032-16.527054 0l0.063219 0.058703z m8.319972 30.990484c2.734189 0 5.150029 1.512722 9.019887 3.955655 8.900225 5.556432 21.006518 13.210354 35.266747 20.920722 28.454981 15.452344 65.523447 32.035842 104.691661 32.035842 37.014279 0 65.557314-8.030974 89.153521-15.594585 23.542021-7.565869 41.902403-14.199268 59.824774-14.199268 19.728606 0 34.571345 3.578604 43.821528 11.173824 9.193738 7.622313 15.770693 21.476139 15.770693 48.418398V420.830269c0 38.059638 4.973921 150.319425-57.670838 260.861031-36.08181 63.694633-101.903285 126.34165-163.93844 172.29002-31.015319 22.925643-61.102686 41.78274-85.721674 54.701839-24.673175 12.919099-45.740654 18.68099-50.220117 18.68099-4.481722 0-25.544684-5.764149-50.222375-18.68099-24.675433-12.919099-54.704097-31.717493-85.721674-54.701839-62.037412-45.889668-127.854372-108.595387-163.879738-172.29002-62.732813-110.541606-57.729541-222.801393-57.72954-260.861031V182.461384c0-26.942259 6.576955-40.823178 15.770692-48.418398C179.584954 126.447766 194.396084 122.869163 214.151784 122.869163c17.922371 0 36.25566 6.633399 59.824774 14.199268 23.539763 7.565869 52.143758 15.594585 89.155779 15.594584 39.107254 0 75.974776-16.644459 104.459108-32.094545 14.257971-7.739719 26.362006-15.393641 35.266746-20.920721 3.840508-2.386489 6.488901-3.987265 9.225347-3.987265l0.03161 0.09257z" fill="#e6e6e6" p-id="30407"></path></svg>