<?xml version="1.0" encoding="iso-8859-1"?>
<!-- Generator: Adobe Illustrator 19.0.0, SVG Export Plug-In . SVG Version: 6.00 Build 0)  -->
<svg version="1.1" id="Capa_1" xmlns="http://www.w3.org/2000/svg" xmlns:xlink="http://www.w3.org/1999/xlink" x="0px" y="0px"
	 viewBox="0 0 492.4 492.4" style="enable-background:new 0 0 492.4 492.4;" xml:space="preserve">
<path style="fill:#ED664C;" d="M299.7,197.5v-3.7c12.8-8.7,23.4-20.2,30.8-33.9l4.3,1.9c26.6,15.2,48.6,36.2,63.4,60.7l7.3,14.1
	c7.3,15.1,12.5,31.8,13.6,48.5c0,2.6,0,4.7,0,7.3c0,30.8-10.4,60.5-30.2,86c-0.5,0.5-0.5,1,0,2.1c17.2,22.4,16.7,53.7-2.6,74
	c-11.5,12-27.1,19.3-44.8,19.8c-0.5,0-1,0-2.1,0c-16.7,0-32.3-6.3-43.8-17.2l-13-12.5c-0.5-0.5-1-0.5-1.6-0.5
	c-26.6,6.3-55.3,7.3-82.4,2.6c-0.5,0-1,0-1.6,0.5l-9.9,9.4c-24,22.4-61.5,24-86.5,3.6C79.7,443,74.5,414.3,86,391.4
	c0.5-0.5,0-1,0-1.6c-10.4-11.5-18.8-24-25-37c-0.5-0.5-1-1-1.6-1l-32.9-6.6c-9.7-1.9-16.7-10.5-16.7-20.4v-64.3
	c0-10,7-18.5,16.7-20.4l32.8-6.6c0.5,0,1-0.5,1.6-1c10.9-21.9,27.1-41.2,48-57.3c0.5-0.5,0.5-1,0.5-1.6l-2.6-24
	c-2.1-18.8-2.6-25.5-2.1-28.7c0.5-4.7,4.2-7.8,9.9-7.8c9-0.3,22.3,3.3,35.3,7.9h0.2c2.1,31,19,57.9,43.6,73.9v2.7h106V197.5z
	 M154.2,267.8c0-8.7-7-15.6-15.6-15.6c-8.7,0-15.6,7-15.6,15.6s7,15.6,15.6,15.6C147.1,283.5,154.2,276.5,154.2,267.8z"/>
<path style="fill:#FDC75B;" d="M342.1,114.1c0,16.6-4.2,32.2-11.6,45.8c-7.4,13.7-18,25.2-30.8,33.9v3.7h-106v-2.7
	c-24.7-16-41.5-42.9-43.6-73.9c-0.2-2.2-0.3-4.5-0.3-6.8c0-53.1,43.1-96.1,96.1-96.1S342.1,61,342.1,114.1z M296.6,113.9
	c0-27.9-22.6-50.6-50.6-50.6s-50.6,22.6-50.6,50.6s22.6,50.6,50.6,50.6S296.6,141.8,296.6,113.9z"/>
<g>
	<circle style="fill:#ED664C;" cx="246" cy="113.9" r="50.6"/>
	<circle style="fill:#ED664C;" cx="138.5" cy="267.8" r="15.6"/>
</g>
<path d="M459.9,134.1c-3.9,3.9-3.9,10.2,0,14.1c7.9,7.9,12.3,18.5,12.3,29.7c0,11.2-4.4,21.7-12.3,29.7c-16.4,16.4-43,16.4-59.4,0
	c-0.2-0.2-0.3-0.3-0.5-0.4c-14.5-20.5-33.7-38.1-56.3-51.7c5.5-13,8.4-27.1,8.4-41.4C352.1,55.6,304.5,8,246,8
	c-56.2,0-102.4,44-105.9,99.3c-10.6-3-19.1-4.4-25.7-4.2c-10.6,0.1-18.4,6.7-19.6,16.4c-0.7,4.3-0.2,10.6,2.1,31.1l2.1,19.6
	c-19.2,15.6-34.3,33.8-45.2,54.2l-29.1,5.8C10.3,233,0,245.8,0,260.4v64.3c0,14.7,10.3,27.4,24.7,30.2l29.1,5.8
	c5.7,11.1,12.7,21.6,20.9,31.3c-10.7,26.7-3.1,57.2,19.6,75.8c13.7,11.1,30.4,16.6,47.1,16.6c18.9,0,37.8-7,52.6-20.7l7-6.6
	c25.5,3.9,52.2,3.1,77.7-2.4l9.9,9.5c13.5,12.9,31.5,19.9,50.7,19.9h2.1c0.1,0,0.2,0,0.3,0c19.8-0.6,38.2-8.7,51.8-22.9
	c21-22.2,23.5-55.6,6.9-81.8c18.8-26.2,28.7-56.2,28.7-87.2v-7.3c0-0.2,0-0.4,0-0.6c-0.9-14.9-4.8-30.3-11.6-45.9
	c4.2,0.9,8.6,1.4,12.9,1.4c15.9,0,31.7-6,43.8-18.1c11.7-11.7,18.2-27.3,18.2-43.8s-6.5-32.1-18.2-43.8
	C470.1,130.2,463.8,130.2,459.9,134.1z M246,27.9c47.5,0,86.1,38.6,86.1,86.1c0,14.3-3.6,28.5-10.4,41.1
	c-6.5,12.1-16.1,22.5-27.6,30.2c-0.8,0.6-1.6,1.8-2.2,1.8h-91.4c-0.4,0-0.9-0.6-1.4-1c-22.6-14.6-37.2-39.3-39.1-66.1
	c-0.2-2.3-0.2-4.3-0.2-6.1C159.9,66.5,198.5,27.9,246,27.9z M409,292.3c0,28.5-9.7,56-28,79.7c-1.7,2-4.3,6.6-1.2,12.8
	c0.3,0.6,0.6,1.1,1,1.6c14.5,18.9,13.7,44.5-1.9,61c-9.9,10.3-23.3,16.7-37.8,16.7h-1.9c-14,0-27.1-5.1-36.9-14.4l-13-12.4
	c-2.3-2.2-5.1-3.3-8.5-3.3c-0.8,0-1.5,0.1-2.3,0.3c-25.7,6.1-52.8,6.9-78.4,2.5c-0.6-0.1-1.1-0.1-1.7-0.1c-3.4,0-6.2,1.1-8.5,3.3
	l-9.8,9.3c-9.9,9.2-22.8,14.6-36.5,15.2c-13.6,0.6-26.7-3.7-36.9-11.9C90,438.8,85,415.8,94.5,396.4c1.1-1.9,2.1-4.8,1.1-8.5
	c-0.4-1.8-1.2-3.4-2.4-4.7c-9.5-10.5-17.4-22.2-23.4-34.6c-0.5-1-1.1-1.9-1.9-2.7c-1-1-3.3-3.3-7.1-3.9l-32.2-6.5
	c-5-1-8.6-5.5-8.6-10.6v-64.3c0-5.2,3.5-9.6,8.6-10.6l32.3-6.5c3.8-0.5,6.1-2.9,7.1-3.9c0.8-0.8,1.4-1.6,1.9-2.6
	c10.3-20.5,25.4-38.6,45.1-53.9c0.3-0.3,0.6-0.5,0.9-0.8c2.3-2.3,3.4-5.2,3.4-8.6c0-0.4,0-0.7-0.1-1.1l-2.6-24
	c-0.9-7.7-2.4-21.6-2.2-25.4c0.1,0,0.3,0,0.4,0c4-0.1,11.7,0.6,25.9,5.2c3,22.2,13.1,43,28.5,59h-9.5c-5.5,0-10,4.5-10,10
	s4.5,10,10,10H333c5.5,0,10-4.5,10-10s-4.5-10-10-10h-10.4c4.3-4,8.2-9.2,11.6-14.3c23.1,14,42.1,32.8,55.2,54.4l7.1,13.7
	c7.3,15.1,11.5,30.4,12.5,44.4L409,292.3L409,292.3z"/>
<path d="M138.5,242.2c-14.1,0-25.6,11.5-25.6,25.6s11.5,25.6,25.6,25.6s25.6-11.5,25.6-25.6C164.2,253.7,152.7,242.2,138.5,242.2z
	 M138.5,273.5c-3.1,0-5.6-2.5-5.6-5.6s2.5-5.6,5.6-5.6s5.6,2.5,5.6,5.6C144.2,271,141.6,273.5,138.5,273.5z"/>
<path d="M246,174.5c33.4,0,60.6-27.2,60.6-60.6S279.4,53.3,246,53.3s-60.6,27.2-60.6,60.6S212.6,174.5,246,174.5z M246,73.3
	c22.4,0,40.6,18.2,40.6,40.6s-18.2,40.6-40.6,40.6s-40.6-18.2-40.6-40.6S223.6,73.3,246,73.3z"/>
<g>
</g>
<g>
</g>
<g>
</g>
<g>
</g>
<g>
</g>
<g>
</g>
<g>
</g>
<g>
</g>
<g>
</g>
<g>
</g>
<g>
</g>
<g>
</g>
<g>
</g>
<g>
</g>
<g>
</g>
</svg>
